<svg width="1800" height="980" viewBox="0 0 1800 980" fill="none" xmlns="http://www.w3.org/2000/svg" role="img" aria-labelledby="title desc">
  <title id="title">Agent Learning Roadmap Overview</title>
  <desc id="desc">A course roadmap centered on the minimal Agent formula, connecting product intuition, paradigm shifts, tool mechanisms, scenario capabilities, runtime architecture, productization, and project practice.</desc>
  <defs>
    <linearGradient id="page" x1="0" y1="0" x2="1800" y2="1080" gradientUnits="userSpaceOnUse">
      <stop stop-color="#F8FAFC"/>
      <stop offset="0.52" stop-color="#F0F7F5"/>
      <stop offset="1" stop-color="#FFF7ED"/>
    </linearGradient>
    <linearGradient id="hero" x1="90" y1="70" x2="1710" y2="250" gradientUnits="userSpaceOnUse">
      <stop stop-color="#102A43"/>
      <stop offset="0.55" stop-color="#0F766E"/>
      <stop offset="1" stop-color="#B45309"/>
    </linearGradient>
    <linearGradient id="core" x1="510" y1="415" x2="1290" y2="635" gradientUnits="userSpaceOnUse">
      <stop stop-color="#07111F"/>
      <stop offset="0.55" stop-color="#123B4A"/>
      <stop offset="1" stop-color="#0F766E"/>
    </linearGradient>
    <filter id="cardShadow" x="-8%" y="-12%" width="116%" height="136%" color-interpolation-filters="sRGB">
      <feDropShadow dx="0" dy="12" stdDeviation="14" flood-color="#0F172A" flood-opacity="0.11"/>
    </filter>
    <style>
      .h1 { font: 850 66px/1.15 -apple-system, BlinkMacSystemFont, "Segoe UI", sans-serif; fill: url(#hero); letter-spacing: 0; }
      .heroText { font: 430 23px/1.45 -apple-system, BlinkMacSystemFont, "Segoe UI", sans-serif; fill: #52616F; letter-spacing: 0; }
      .coreLabel { font: 700 23px/1.2 -apple-system, BlinkMacSystemFont, "Segoe UI", sans-serif; fill: #BFEFF0; letter-spacing: 0; }
      .formula { font: 850 34px/1.2 -apple-system, BlinkMacSystemFont, "Segoe UI", sans-serif; fill: #E8FDFF; letter-spacing: 0; }
      .cardNo { font: 800 17px/1.2 -apple-system, BlinkMacSystemFont, "Segoe UI", sans-serif; fill: #FFFFFF; letter-spacing: 0; }
      .cardTitle { font: 850 25px/1.2 -apple-system, BlinkMacSystemFont, "Segoe UI", sans-serif; fill: #14213D; letter-spacing: 0; }
      .cardFocus { font: 720 16px/1.25 -apple-system, BlinkMacSystemFont, "Segoe UI", sans-serif; fill: #0F766E; letter-spacing: 0; }
    </style>
  </defs>

  <rect width="1800" height="980" fill="url(#page)"/>
  <circle cx="206" cy="838" r="118" fill="#FED7AA" opacity="0.34"/>
  <circle cx="1536" cy="814" r="146" fill="#BFDBFE" opacity="0.34"/>
  <circle cx="1486" cy="96" r="116" fill="#CCFBF1" opacity="0.38"/>

  <g>
    <text x="900" y="136" text-anchor="middle" class="h1">Agent Learning Roadmap</text>
    <text x="900" y="194" text-anchor="middle" class="heroText">Every lesson builds around a minimal Agent loop: understand the core, add scenario capabilities, then engineer and productize it.</text>
    <path d="M488 232H1312" stroke="url(#hero)" stroke-width="5" stroke-linecap="round" opacity="0.72"/>
  </g>

  <g transform="translate(110 306)">
    <rect x="0" y="0" width="372" height="156" rx="24" fill="#FFFFFF" stroke="#DBEAFE" stroke-width="2" filter="url(#cardShadow)"/>
    <rect x="24" y="22" width="108" height="30" rx="15" fill="#2563EB"/>
    <text x="78" y="43" text-anchor="middle" class="cardNo">Lesson 01</text>
    <text x="24" y="86" class="cardTitle">First Encounter</text>
    <text x="24" y="116" class="cardFocus">
      <tspan x="24" dy="0">Build a product lens for Agents:</tspan>
      <tspan x="24" dy="24">Chatbot, Workflow, and Agent</tspan>
    </text>
  </g>

  <g transform="translate(530 286)">
    <rect x="0" y="0" width="340" height="156" rx="24" fill="#FFFFFF" stroke="#DBEAFE" stroke-width="2" filter="url(#cardShadow)"/>
    <rect x="24" y="22" width="108" height="30" rx="15" fill="#2563EB"/>
    <text x="78" y="43" text-anchor="middle" class="cardNo">Lesson 02</text>
    <text x="24" y="86" class="cardTitle">Agent Paradigm</text>
    <text x="24" y="116" class="cardFocus">
      <tspan x="24" dy="0">Understand how the Agent</tspan>
      <tspan x="24" dy="24">paradigm evolves</tspan>
    </text>
  </g>

  <g transform="translate(930 286)">
    <rect x="0" y="0" width="340" height="136" rx="24" fill="#FFFFFF" stroke="#CCFBF1" stroke-width="2" filter="url(#cardShadow)"/>
    <rect x="24" y="22" width="108" height="30" rx="15" fill="#0F766E"/>
    <text x="78" y="43" text-anchor="middle" class="cardNo">Lesson 03</text>
    <text x="24" y="86" class="cardTitle">Minimal Loop</text>
    <text x="24" y="116" class="cardFocus">Break down the minimal loop</text>
  </g>

  <g transform="translate(1318 306)">
    <rect x="0" y="0" width="372" height="156" rx="24" fill="#FFFFFF" stroke="#CCFBF1" stroke-width="2" filter="url(#cardShadow)"/>
    <rect x="24" y="22" width="108" height="30" rx="15" fill="#0F766E"/>
    <text x="78" y="43" text-anchor="middle" class="cardNo">Lesson 04</text>
    <text x="24" y="86" class="cardTitle">Tool Mechanism</text>
    <text x="24" y="116" class="cardFocus">
      <tspan x="24" dy="0">Design controlled tool calls:</tspan>
      <tspan x="24" dy="24">definition, execution, permission, audit</tspan>
    </text>
  </g>

  <g transform="translate(1318 662)">
    <rect x="0" y="0" width="372" height="166" rx="24" fill="#FFFFFF" stroke="#FED7AA" stroke-width="2" filter="url(#cardShadow)"/>
    <rect x="24" y="22" width="108" height="30" rx="15" fill="#EA580C"/>
    <text x="78" y="43" text-anchor="middle" class="cardNo">Lesson 05</text>
    <text x="24" y="86" class="cardTitle">Scenario Capabilities</text>
    <text x="24" y="116" class="cardFocus">
      <tspan x="24" dy="0">Choose RAG, Memory, Planning,</tspan>
      <tspan x="24" dy="24">Reflection, and more by scenario</tspan>
    </text>
  </g>

  <g transform="translate(930 744)">
    <rect x="0" y="0" width="340" height="136" rx="24" fill="#FFFFFF" stroke="#FED7AA" stroke-width="2" filter="url(#cardShadow)"/>
    <rect x="24" y="22" width="108" height="30" rx="15" fill="#EA580C"/>
    <text x="78" y="43" text-anchor="middle" class="cardNo">Lesson 06</text>
    <text x="24" y="86" class="cardTitle">Harness Runtime</text>
    <text x="24" y="116" class="cardFocus">Turn the loop into a stable runtime</text>
  </g>

  <g transform="translate(530 744)">
    <rect x="0" y="0" width="340" height="136" rx="24" fill="#FFFFFF" stroke="#E9D5FF" stroke-width="2" filter="url(#cardShadow)"/>
    <rect x="24" y="22" width="108" height="30" rx="15" fill="#7C3AED"/>
    <text x="78" y="43" text-anchor="middle" class="cardNo">Lesson 07</text>
    <text x="24" y="86" class="cardTitle">Productization</text>
    <text x="24" y="116" class="cardFocus">Handle product issues before launch</text>
  </g>

  <g transform="translate(110 662)">
    <rect x="0" y="0" width="372" height="166" rx="24" fill="#FFFFFF" stroke="#E9D5FF" stroke-width="2" filter="url(#cardShadow)"/>
    <rect x="24" y="22" width="108" height="30" rx="15" fill="#7C3AED"/>
    <text x="78" y="43" text-anchor="middle" class="cardNo">Lesson 08</text>
    <text x="24" y="86" class="cardTitle">Project Practice</text>
    <text x="24" y="116" class="cardFocus">
      <tspan x="24" dy="0">Build knowledge, tool, and task Agents</tspan>
      <tspan x="24" dy="24">in integrated practice</tspan>
    </text>
  </g>

  <g>
    <rect x="260" y="472" width="1280" height="146" rx="38" fill="url(#core)"/>
    <text x="900" y="528" text-anchor="middle" class="formula">
      <tspan x="900" dy="0">Agent = Prompt + LLM Decision</tspan>
      <tspan x="900" dy="40">+ Tool/Environment Interaction + State + Loop Control</tspan>
    </text>
    <text x="900" y="596" text-anchor="middle" class="coreLabel">Minimal Core Formula</text>
  </g>

</svg>
